# xmcd
#
# Track frame offsets:
#	150
#	20981
#	39736
#	65060
#	89698
#	113541
#	128595
#	160688
#	181257
#	193374
#	209898
#
# Disc length: 3114 seconds
#
# Revision: 1
# Processed by: cddbd v1.4PL0 Copyright (c) Steve Scherf et al.
# Submitted via: audiograbber 1.81.02
#
DISCID=a60c280b
DTITLE=The Cadillac Hitmen - Tri-State Killing Spree
DYEAR=1999
DGENRE=Folk-Rock
TTITLE0=Black Snake Road
TTITLE1=The Bullet Dance
TTITLE2=Lock 'N Load
TTITLE3=Tri-State Killing Spree
TTITLE4=Blue Agave
TTITLE5=Tombstone and Gila
TTITLE6=Cold Sweat
TTITLE7=The Painted Desert
TTITLE8=El Gringo Muerte
TTITLE9=Do the Iguana
TTITLE10=Race for the Border
EXTD=
EXTT0=
EXTT1=
EXTT2=
EXTT3=
EXTT4=
EXTT5=
EXTT6=
EXTT7=
EXTT8=
EXTT9=
EXTT10=
PLAYORDER=
